<svg width="20" height="20" fill="none" xmlns="http://www.w3.org/2000/svg">
  <path d="M10 0c2.72 0 3.06.01 4.12.06 1.07.05 1.8.22 2.43.47.66.25 1.22.6 1.77 1.15.51.5.9 1.1 1.16 1.77.24.64.41 1.36.46 2.43.05 1.06.06 1.4.06 4.12s-.01 3.06-.06 4.12a7.4 7.4 0 01-.46 2.43 4.88 4.88 0 01-1.16 1.77c-.5.51-1.1.9-1.77 1.16-.64.24-1.36.41-2.43.46-1.06.05-1.4.06-4.12.06s-3.06-.01-4.12-.06a7.4 7.4 0 01-2.43-.46 4.89 4.89 0 01-1.77-1.16c-.51-.5-.9-1.1-1.16-1.77a7.36 7.36 0 01-.46-2.43C.01 13.06 0 12.72 0 10s.01-3.06.06-4.12c.05-1.07.22-1.8.47-2.43.25-.67.64-1.27 1.15-1.77.5-.51 1.1-.9 1.77-1.16A7.36 7.36 0 015.88.06C6.94.01 7.28 0 10 0zm0 5a5 5 0 100 10 5 5 0 000-10zm6.5-.25a1.25 1.25 0 10-2.5 0 1.25 1.25 0 002.5 0zM10 7a3 3 0 110 6 3 3 0 010-6z" fill="#fff"/>
</svg>
