<svg width="21" height="21" fill="none" xmlns="http://www.w3.org/2000/svg">
  <path d="M11.93.1C9.43-.25 6.9.3 4.8 1.63A10.04 10.04 0 00.48 7.29a9.64 9.64 0 00.61 7 10.24 10.24 0 005.25 4.88c-.07-.77 0-1.54.17-2.3.19-.83 1.35-5.46 1.35-5.46a3.61 3.61 0 01-.34-1.57c0-1.49.9-2.6 2-2.6a1.44 1.44 0 011.06.45 1.32 1.32 0 01.34 1.06c0 .9-.6 2.26-.92 3.54a1.48 1.48 0 00.32 1.36 1.6 1.6 0 001.32.57c1.98 0 3.3-2.44 3.3-5.3 0-2.2-1.51-3.85-4.31-3.85A5.13 5.13 0 006.99 6.4a4.74 4.74 0 00-1.5 3.45c-.03.71.21 1.41.68 1.97.09.06.15.15.18.25s.03.2-.01.3a35.98 35.98 0 01-.29.94.38.38 0 01-.46.1c-1.44-.55-2.12-2.07-2.12-3.81 0-2.85 2.48-6.26 7.45-6.26 3.96 0 6.58 2.78 6.58 5.75 0 3.9-2.26 6.85-5.61 6.85a3.08 3.08 0 01-2.56-1.25l-.72 2.75a7.9 7.9 0 01-1.06 2.14 10.78 10.78 0 0010.33-2.51 9.64 9.64 0 00.48-13.64C16.7 1.6 14.42.42 11.93.09z" fill="#fff"/>
</svg>
